# xmcd CD database file
#
# Track frame offsets:
#	150
#	13860
#	27220
#	41742
#	63780
#	79582
#	91820
#	105282
#	127080
#	142860
#	172640
#	186345
#	199735
#	214255
#	236300
#	252107
#	264345
#
# Disc length: 3701 seconds
#
# Revision: 0
# Processed by: cddbd v1.5.2PL0 Copyright (c) Steve Scherf et al.
# Submitted via: CDex 1.70beta2
#
DISCID=d40e7311
DTITLE=Ron Dunivan - It's Hard To Find The Old Road Signs Of U.S. 66
DYEAR=1999
DGENRE=Country
TTITLE0=Dust Bowl Baby
TTITLE1=Truck Drivers-Night Riders Of The Road
TTITLE2=Mother Of The Mother Road
TTITLE3=Thank You Dad
TTITLE4=Momma's Brass Bed
TTITLE5=Old Glory
TTITLE6=Winslow, Arizona, Americana USA
TTITLE7=Thank You Mom
TTITLE8=Dust Bowl Refugees
TTITLE9=It's Hard To Find The OId Road Signs Of U.S. 66
TTITLE10=Dust Bowl Baby (Instrumental)
TTITLE11=Truck Drivers-Night Riders Of The Road (Instrumental)
TTITLE12=Mother Of The Mother Road (Instrumental)
TTITLE13=Thank You Dad (Instrumental)
TTITLE14=Momma's Brass Bed (Instrumental)
TTITLE15=Old Glory (Instrumental)
TTITLE16=Winslow, Arizona, Americana USA (Instrumental)
EXTD=YEAR: 1999
EXTT0=
EXTT1=
EXTT2=
EXTT3=
EXTT4=
EXTT5=
EXTT6=
EXTT7=
EXTT8=
EXTT9=
EXTT10=
EXTT11=
EXTT12=
EXTT13=
EXTT14=
EXTT15=
EXTT16=
PLAYORDER=
